<svg width="718" height="242" viewBox="0 0 718 242" fill="none" xmlns="http://www.w3.org/2000/svg">
<rect width="718" height="242" fill="#1E1E1E"/>
<g filter="url(#filter0_n_0_1)">
<path d="M121 0C125.113 6.59818e-06 129.178 0.205701 133.186 0.606445C134.236 0.711481 135.282 0.830192 136.324 0.961914C136.588 0.995195 136.85 1.03046 137.113 1.06543C137.393 1.10263 137.672 1.13863 137.951 1.17773C138.636 1.27375 139.319 1.37792 140 1.48535C141.312 1.69235 142.618 1.91816 143.916 2.16699C144.802 2.33679 145.684 2.51804 146.562 2.70703C148.869 3.20318 151.151 3.76597 153.407 4.3916C153.972 4.54831 154.536 4.70837 155.098 4.87305C155.265 4.92198 155.432 4.96892 155.599 5.01855C156.356 5.24403 157.109 5.47894 157.859 5.71875C158.052 5.78024 158.244 5.8409 158.437 5.90332C159.165 6.14022 159.891 6.38546 160.613 6.63574C178.141 12.7064 193.841 22.6912 206.665 35.5469L35.5469 206.666L35.3613 206.48C26.1542 197.256 18.4272 186.554 12.5684 174.76C11.7953 173.204 11.0567 171.627 10.3496 170.034C7.27893 163.115 4.83675 155.855 3.09863 148.326C2.79387 147.006 2.51214 145.677 2.25098 144.341C1.93313 142.714 1.64651 141.077 1.39453 139.428C0.476427 133.419 1.70133e-05 127.265 0 121C1.77039e-06 120.348 0.00632624 119.697 0.0166016 119.048C0.0301026 118.194 0.0519239 117.343 0.0830078 116.494C0.540812 103.99 2.89489 91.9699 6.86816 80.7139C7.50739 78.9029 8.1893 77.112 8.91113 75.3418C10.9712 70.2897 13.3623 65.4077 16.0586 60.7236C16.5292 59.9061 17.009 59.0945 17.498 58.2891C21.4013 51.8608 25.8877 45.826 30.8818 40.2559C31.0197 40.1021 31.1572 39.948 31.2959 39.7949L39.7949 31.2959C39.948 31.1572 40.1021 31.0197 40.2559 30.8818C40.428 30.7275 40.5994 30.5723 40.7725 30.4189C41.8286 29.4828 42.9016 28.5653 43.9902 27.666C54.1478 19.2754 65.6987 12.5121 78.2432 7.77246C79.0681 7.4608 79.8971 7.15732 80.7305 6.86328C86.3463 4.88185 92.152 3.30239 98.1133 2.16113C99.0599 1.97992 100.011 1.81039 100.965 1.65137C107.482 0.565387 114.175 8.42242e-06 121 0Z" fill="#0072C6"/>
<path d="M206.586 206.532C184.687 228.445 154.427 242 121 242C88.6559 242 59.2765 229.309 37.5682 208.636L33.3641 204.432C12.707 182.74 0.0204917 153.389 0.000793457 121.075C0.0234804 87.6417 13.6063 57.381 35.5467 35.4943L206.586 206.532Z" fill="#0047AB"/>
<path d="M206.499 35.3799C227.184 56.0358 240.428 84.1399 241.867 115.326V126.673C241.722 129.817 241.457 132.929 241.076 136.006C237.858 161.773 226.36 186.704 206.576 206.488C191.077 221.987 172.42 232.401 152.676 237.732C173.268 232.136 191.678 221.24 206.348 206.598L206.533 206.412L120.999 120.879L206.499 35.3799Z" fill="#1E90FF"/>
</g>
<circle cx="121" cy="121" r="121" fill="url(#paint0_linear_0_1)"/>
<g filter="url(#filter1_n_0_1)">
<path d="M122.062 165.375C114.021 165.375 107.188 164.958 101.562 164.125C95.9375 163.333 91.3958 161.688 87.9375 159.188C84.4792 156.646 81.9583 152.854 80.375 147.812C78.7917 142.771 78 136.042 78 127.625C78 119.458 78.7917 112.917 80.375 108C81.9583 103.083 84.4792 99.375 87.9375 96.875C91.3958 94.375 95.9375 92.7083 101.562 91.875C107.188 91.0417 114.021 90.625 122.062 90.625C131.688 90.625 139.604 91.1875 145.812 92.3125C152.062 93.3958 156.688 95.6458 159.688 99.0625C162.688 102.479 164.188 107.688 164.188 114.688H152.688C152.688 110.646 151.854 107.625 150.188 105.625C148.521 103.625 145.479 102.292 141.062 101.625C136.646 100.958 130.312 100.625 122.062 100.625C114.646 100.625 108.771 100.938 104.438 101.562C100.104 102.188 96.9167 103.417 94.875 105.25C92.8333 107.042 91.5 109.729 90.875 113.312C90.2917 116.896 90 121.667 90 127.625C90 133.792 90.2917 138.729 90.875 142.438C91.5 146.146 92.8333 148.938 94.875 150.812C96.9167 152.646 100.104 153.875 104.438 154.5C108.771 155.083 114.646 155.375 122.062 155.375C128.354 155.375 133.5 155.208 137.5 154.875C141.5 154.5 144.604 153.792 146.812 152.75C149.021 151.667 150.542 150.125 151.375 148.125C152.25 146.083 152.688 143.375 152.688 140H164.188C164.188 145.583 163.354 150.062 161.688 153.438C160.021 156.812 157.479 159.354 154.062 161.062C150.646 162.771 146.271 163.917 140.938 164.5C135.646 165.083 129.354 165.375 122.062 165.375Z" fill="url(#paint1_linear_0_1)"/>
<path d="M215.25 165.375C205.833 165.375 198.417 164.354 193 162.312C187.583 160.229 183.729 156.771 181.438 151.938C179.146 147.062 178 140.417 178 132V92H190.062V132C190.062 136.75 190.438 140.667 191.188 143.75C191.979 146.792 193.354 149.167 195.312 150.875C197.271 152.542 200.021 153.708 203.562 154.375C207.146 155.042 211.75 155.375 217.375 155.375C225.708 155.375 232.25 154.688 237 153.312C241.75 151.938 245.104 149.792 247.062 146.875C249.062 143.917 250.062 140.083 250.062 135.375V92H262.062V164H250.062V154.438C248.312 156.854 246.104 158.875 243.438 160.5C240.771 162.125 237.208 163.333 232.75 164.125C228.292 164.958 222.458 165.375 215.25 165.375Z" fill="url(#paint2_linear_0_1)"/>
<path d="M322.688 165.375C314.979 165.375 308.458 164.792 303.125 163.625C297.833 162.458 293.667 159.833 290.625 155.75V164H278.625V68H290.625V100.188C293.667 96.1458 297.833 93.5417 303.125 92.375C308.458 91.2083 314.979 90.625 322.688 90.625C330.771 90.625 337.604 91.0417 343.188 91.875C348.812 92.7083 353.354 94.375 356.812 96.875C360.271 99.375 362.792 103.083 364.375 108C365.958 112.917 366.75 119.458 366.75 127.625C366.75 136.042 365.958 142.771 364.375 147.812C362.792 152.854 360.271 156.646 356.812 159.188C353.354 161.688 348.812 163.333 343.188 164.125C337.604 164.958 330.771 165.375 322.688 165.375ZM354.75 127.625C354.75 121.667 354.438 116.896 353.812 113.312C353.229 109.729 351.917 107.042 349.875 105.25C347.833 103.417 344.646 102.188 340.312 101.562C336.021 100.938 330.146 100.625 322.688 100.625C315.896 100.625 310.396 100.938 306.188 101.562C301.979 102.188 298.75 103.417 296.5 105.25C294.25 107.042 292.708 109.729 291.875 113.312C291.042 116.896 290.625 121.667 290.625 127.625C290.625 133.792 291.042 138.729 291.875 142.438C292.708 146.146 294.25 148.938 296.5 150.812C298.75 152.646 301.979 153.875 306.188 154.5C310.396 155.083 315.896 155.375 322.688 155.375C330.146 155.375 336.021 155.083 340.312 154.5C344.646 153.875 347.833 152.646 349.875 150.812C351.917 148.938 353.229 146.146 353.812 142.438C354.438 138.729 354.75 133.792 354.75 127.625Z" fill="url(#paint3_linear_0_1)"/>
<path d="M380.75 164V96H392.75V164H380.75ZM380.75 80V68H392.75V80H380.75Z" fill="url(#paint4_linear_0_1)"/>
<path d="M455.188 166C445.812 166 438.104 165.354 432.062 164.062C426.021 162.812 421.292 160.479 417.875 157.062C414.5 153.646 412.125 148.729 410.75 142.312C409.417 135.896 408.75 127.542 408.75 117.25V114.75C408.75 106.25 409.167 99.125 410 93.375C410.833 87.5833 412.271 82.875 414.312 79.25C416.354 75.625 419.125 72.8542 422.625 70.9375C426.167 69.0208 430.604 67.7292 435.938 67.0625C441.271 66.3542 447.688 66 455.188 66H480.375C487.875 66 494.292 66.3542 499.625 67.0625C504.958 67.7292 509.375 69.0208 512.875 70.9375C516.417 72.8542 519.208 75.625 521.25 79.25C523.292 82.875 524.729 87.5833 525.562 93.375C526.396 99.125 526.812 106.25 526.812 114.75V117.25C526.812 127.542 526.125 135.896 524.75 142.312C523.417 148.729 521.042 153.646 517.625 157.062C514.25 160.479 509.542 162.812 503.5 164.062C497.458 165.354 489.75 166 480.375 166H455.188ZM455.188 155.625H480.375C486.333 155.625 491.354 155.417 495.438 155C499.521 154.583 502.833 153.688 505.375 152.312C507.958 150.938 509.917 148.854 511.25 146.062C512.625 143.271 513.562 139.542 514.062 134.875C514.562 130.208 514.812 124.333 514.812 117.25V114.75C514.812 107.417 514.562 101.375 514.062 96.625C513.562 91.875 512.625 88.125 511.25 85.375C509.917 82.625 507.958 80.625 505.375 79.375C502.833 78.0833 499.521 77.2708 495.438 76.9375C491.354 76.5625 486.333 76.375 480.375 76.375H455.188C449.229 76.375 444.208 76.5625 440.125 76.9375C436.042 77.2708 432.708 78.0833 430.125 79.375C427.583 80.625 425.625 82.625 424.25 85.375C422.917 88.125 422 91.875 421.5 96.625C421 101.375 420.75 107.417 420.75 114.75V117.25C420.75 124.333 421 130.208 421.5 134.875C422 139.542 422.917 143.271 424.25 146.062C425.625 148.854 427.583 150.938 430.125 152.312C432.708 153.688 436.042 154.583 440.125 155C444.208 155.417 449.229 155.625 455.188 155.625Z" fill="url(#paint5_linear_0_1)"/>
<path d="M649.062 136.25C649.062 132.542 648.771 129.625 648.188 127.5C647.604 125.375 646.292 123.812 644.25 122.812C642.208 121.771 639.042 121.104 634.75 120.812C630.458 120.479 624.583 120.25 617.125 120.125L582.375 119.625C573.792 119.5 566.896 118.979 561.688 118.062C556.479 117.146 552.542 115.708 549.875 113.75C547.208 111.75 545.417 109.083 544.5 105.75C543.625 102.417 543.188 98.25 543.188 93.25C543.188 87.7917 543.792 83.2917 545 79.75C546.25 76.2083 548.479 73.4375 551.688 71.4375C554.938 69.4375 559.521 68.0417 565.438 67.25C571.354 66.4167 579 66 588.375 66H615.125C623.625 66 630.708 66.2708 636.375 66.8125C642.042 67.3542 646.542 68.6042 649.875 70.5625C653.208 72.5208 655.583 75.5625 657 79.6875C658.458 83.8125 659.188 89.4792 659.188 96.6875H647.188C647.188 91.1042 646.646 86.8958 645.562 84.0625C644.521 81.1875 642.771 79.2292 640.312 78.1875C637.896 77.1458 634.625 76.5833 630.5 76.5C626.375 76.4167 621.25 76.375 615.125 76.375H589C581.542 76.375 575.562 76.5208 571.062 76.8125C566.604 77.1042 563.229 77.7708 560.938 78.8125C558.646 79.8542 557.104 81.5208 556.312 83.8125C555.562 86.1042 555.188 89.25 555.188 93.25C555.188 96.625 555.458 99.3333 556 101.375C556.542 103.417 557.75 104.979 559.625 106.062C561.542 107.104 564.479 107.833 568.438 108.25C572.396 108.625 577.792 108.854 584.625 108.938L621.875 109.438C630.625 109.562 637.604 110.083 642.812 111C648.062 111.875 651.979 113.312 654.562 115.312C657.188 117.312 658.917 120.021 659.75 123.438C660.625 126.812 661.062 131.083 661.062 136.25C661.062 141.875 660.521 146.604 659.438 150.438C658.396 154.229 656.354 157.271 653.312 159.562C650.271 161.854 645.875 163.5 640.125 164.5C634.375 165.5 626.812 166 617.438 166H588.188C579.646 166 572.479 165.625 566.688 164.875C560.896 164.125 556.271 162.625 552.812 160.375C549.396 158.083 546.938 154.688 545.438 150.188C543.938 145.688 543.188 139.688 543.188 132.188H555.188C555.188 138.062 555.667 142.604 556.625 145.812C557.583 149.021 559.25 151.333 561.625 152.75C564.042 154.125 567.396 154.958 571.688 155.25C576.021 155.5 581.521 155.625 588.188 155.625H616.812C624.271 155.625 630.167 155.396 634.5 154.938C638.833 154.438 642.042 153.521 644.125 152.188C646.208 150.812 647.542 148.854 648.125 146.312C648.75 143.771 649.062 140.417 649.062 136.25Z" fill="url(#paint6_linear_0_1)"/>
<path d="M674.102 63V46.875H665.102V45H685.352V46.875H676.352V63H674.102Z" fill="url(#paint7_linear_0_1)"/>
<path d="M688.75 63V45H692.102L702.988 59.6836L713.711 45H717.062V63H714.812V47.0391L704.066 61.8164H702.027L691 47.0391V63H688.75Z" fill="url(#paint8_linear_0_1)"/>
</g>
<defs>
<filter id="filter0_n_0_1" x="0" y="0" width="241.867" height="242" filterUnits="userSpaceOnUse" color-interpolation-filters="sRGB">
<feFlood flood-opacity="0" result="BackgroundImageFix"/>
<feBlend mode="normal" in="SourceGraphic" in2="BackgroundImageFix" result="shape"/>
<feTurbulence type="fractalNoise" baseFrequency="1.4285714626312256 1.4285714626312256" stitchTiles="stitch" numOctaves="3" result="noise" seed="7788" />
<feColorMatrix in="noise" type="luminanceToAlpha" result="alphaNoise" />
<feComponentTransfer in="alphaNoise" result="coloredNoise1">
<feFuncA type="discrete" tableValues="0 0 0 0 0 0 0 0 0 0 0 0 1 1 1 1 1 1 1 1 1 1 1 1 1 1 1 1 1 1 1 1 1 1 1 1 1 1 0 0 0 0 0 0 0 0 0 0 0 0 0 0 0 0 0 0 0 0 0 0 0 0 0 0 0 0 0 0 0 0 0 0 0 0 0 0 0 0 0 0 0 0 0 0 0 0 0 0 0 0 0 0 0 0 0 0 0 0 0 0 "/>
</feComponentTransfer>
<feComposite operator="in" in2="shape" in="coloredNoise1" result="noise1Clipped" />
<feFlood flood-color="rgba(0, 0, 0, 0.05)" result="color1Flood" />
<feComposite operator="in" in2="noise1Clipped" in="color1Flood" result="color1" />
<feMerge result="effect1_noise_0_1">
<feMergeNode in="shape" />
<feMergeNode in="color1" />
</feMerge>
</filter>
<filter id="filter1_n_0_1" x="78" y="45" width="639.062" height="121" filterUnits="userSpaceOnUse" color-interpolation-filters="sRGB">
<feFlood flood-opacity="0" result="BackgroundImageFix"/>
<feBlend mode="normal" in="SourceGraphic" in2="BackgroundImageFix" result="shape"/>
<feTurbulence type="fractalNoise" baseFrequency="2 2" stitchTiles="stitch" numOctaves="3" result="noise" seed="9049" />
<feColorMatrix in="noise" type="luminanceToAlpha" result="alphaNoise" />
<feComponentTransfer in="alphaNoise" result="coloredNoise1">
<feFuncA type="discrete" tableValues="0 0 0 0 0 0 0 1 1 1 1 1 1 1 1 1 1 1 1 1 1 1 1 1 1 1 1 1 1 1 1 1 1 1 1 1 1 1 1 1 1 1 1 0 0 0 0 0 0 0 0 0 0 0 0 0 0 0 0 0 0 0 0 0 0 0 0 0 0 0 0 0 0 0 0 0 0 0 0 0 0 0 0 0 0 0 0 0 0 0 0 0 0 0 0 0 0 0 0 0 "/>
</feComponentTransfer>
<feComposite operator="in" in2="shape" in="coloredNoise1" result="noise1Clipped" />
<feFlood flood-color="rgba(0, 0, 0, 0.08)" result="color1Flood" />
<feComposite operator="in" in2="noise1Clipped" in="color1Flood" result="color1" />
<feMerge result="effect1_noise_0_1">
<feMergeNode in="shape" />
<feMergeNode in="color1" />
</feMerge>
</filter>
<linearGradient id="paint0_linear_0_1" x1="207.5" y1="37.5" x2="51" y2="211" gradientUnits="userSpaceOnUse">
<stop stop-color="#D9D9D9" stop-opacity="0"/>
<stop offset="1" stop-opacity="0.57"/>
</linearGradient>
<linearGradient id="paint1_linear_0_1" x1="78" y1="61.661" x2="720.5" y2="166" gradientUnits="userSpaceOnUse">
<stop offset="0.00782396" stop-color="white"/>
<stop offset="1" stop-color="#999999"/>
</linearGradient>
<linearGradient id="paint2_linear_0_1" x1="78" y1="61.661" x2="720.5" y2="166" gradientUnits="userSpaceOnUse">
<stop offset="0.00782396" stop-color="white"/>
<stop offset="1" stop-color="#999999"/>
</linearGradient>
<linearGradient id="paint3_linear_0_1" x1="78" y1="61.661" x2="720.5" y2="166" gradientUnits="userSpaceOnUse">
<stop offset="0.00782396" stop-color="white"/>
<stop offset="1" stop-color="#999999"/>
</linearGradient>
<linearGradient id="paint4_linear_0_1" x1="78" y1="61.661" x2="720.5" y2="166" gradientUnits="userSpaceOnUse">
<stop offset="0.00782396" stop-color="white"/>
<stop offset="1" stop-color="#999999"/>
</linearGradient>
<linearGradient id="paint5_linear_0_1" x1="78" y1="61.661" x2="720.5" y2="166" gradientUnits="userSpaceOnUse">
<stop offset="0.00782396" stop-color="white"/>
<stop offset="1" stop-color="#999999"/>
</linearGradient>
<linearGradient id="paint6_linear_0_1" x1="78" y1="61.661" x2="720.5" y2="166" gradientUnits="userSpaceOnUse">
<stop offset="0.00782396" stop-color="white"/>
<stop offset="1" stop-color="#999999"/>
</linearGradient>
<linearGradient id="paint7_linear_0_1" x1="78" y1="61.661" x2="720.5" y2="166" gradientUnits="userSpaceOnUse">
<stop offset="0.00782396" stop-color="white"/>
<stop offset="1" stop-color="#999999"/>
</linearGradient>
<linearGradient id="paint8_linear_0_1" x1="78" y1="61.661" x2="720.5" y2="166" gradientUnits="userSpaceOnUse">
<stop offset="0.00782396" stop-color="white"/>
<stop offset="1" stop-color="#999999"/>
</linearGradient>
</defs>
</svg>
